<svg xmlns="http://www.w3.org/2000/svg" xmlns:xlink="http://www.w3.org/1999/xlink" width="600" zoomAndPan="magnify" viewBox="0 0 450 449.999984" height="600" preserveAspectRatio="xMidYMid meet" version="1.0"><defs><clipPath id="ecd10b939c"><path d="M 22.871094 22.871094 L 427.121094 22.871094 L 427.121094 427.121094 L 22.871094 427.121094 Z M 22.871094 22.871094 " clip-rule="nonzero"/></clipPath><clipPath id="d3cc243364"><path d="M 22.871094 22.871094 L 427.121094 22.871094 L 427.121094 427.121094 L 22.871094 427.121094 Z M 22.871094 22.871094 " clip-rule="nonzero"/></clipPath></defs><g clip-path="url(#ecd10b939c)"><path fill="#004aad" d="M 427.121094 224.996094 C 427.121094 228.304688 427.039062 231.609375 426.878906 234.914062 C 426.714844 238.21875 426.472656 241.515625 426.148438 244.808594 C 425.824219 248.101562 425.417969 251.382812 424.933594 254.65625 C 424.449219 257.925781 423.882812 261.183594 423.238281 264.429688 C 422.59375 267.675781 421.867188 270.902344 421.0625 274.109375 C 420.261719 277.316406 419.378906 280.503906 418.417969 283.671875 C 417.457031 286.835938 416.421875 289.976562 415.304688 293.089844 C 414.191406 296.207031 413 299.289062 411.734375 302.347656 C 410.46875 305.402344 409.128906 308.425781 407.714844 311.417969 C 406.300781 314.40625 404.816406 317.359375 403.253906 320.277344 C 401.695312 323.195312 400.066406 326.074219 398.367188 328.910156 C 396.664062 331.746094 394.894531 334.539062 393.058594 337.292969 C 391.21875 340.042969 389.316406 342.746094 387.34375 345.402344 C 385.375 348.058594 383.339844 350.667969 381.242188 353.222656 C 379.144531 355.78125 376.984375 358.285156 374.761719 360.734375 C 372.539062 363.1875 370.261719 365.582031 367.921875 367.921875 C 365.582031 370.261719 363.1875 372.539062 360.734375 374.761719 C 358.285156 376.984375 355.78125 379.144531 353.222656 381.242188 C 350.667969 383.339844 348.058594 385.375 345.402344 387.34375 C 342.746094 389.316406 340.042969 391.21875 337.292969 393.058594 C 334.539062 394.894531 331.746094 396.664062 328.910156 398.367188 C 326.074219 400.066406 323.195312 401.695312 320.277344 403.253906 C 317.359375 404.816406 314.40625 406.300781 311.417969 407.714844 C 308.425781 409.128906 305.402344 410.46875 302.347656 411.734375 C 299.289062 413 296.207031 414.191406 293.089844 415.304688 C 289.976562 416.421875 286.835938 417.457031 283.671875 418.417969 C 280.503906 419.378906 277.316406 420.261719 274.109375 421.0625 C 270.902344 421.867188 267.675781 422.59375 264.429688 423.238281 C 261.183594 423.882812 257.925781 424.449219 254.65625 424.933594 C 251.382812 425.417969 248.101562 425.824219 244.808594 426.148438 C 241.515625 426.472656 238.21875 426.714844 234.914062 426.878906 C 231.609375 427.039062 228.304688 427.121094 224.996094 427.121094 C 221.6875 427.121094 218.382812 427.039062 215.078125 426.878906 C 211.773438 426.714844 208.476562 426.472656 205.183594 426.148438 C 201.894531 425.824219 198.609375 425.417969 195.339844 424.933594 C 192.066406 424.449219 188.808594 423.882812 185.5625 423.238281 C 182.320312 422.59375 179.09375 421.867188 175.882812 421.0625 C 172.675781 420.261719 169.488281 419.378906 166.324219 418.417969 C 163.15625 417.457031 160.015625 416.421875 156.902344 415.304688 C 153.789062 414.191406 150.703125 413 147.648438 411.734375 C 144.589844 410.46875 141.566406 409.128906 138.578125 407.714844 C 135.585938 406.300781 132.632812 404.816406 129.714844 403.253906 C 126.796875 401.695312 123.921875 400.066406 121.082031 398.367188 C 118.246094 396.664062 115.453125 394.894531 112.703125 393.058594 C 109.953125 391.21875 107.25 389.316406 104.589844 387.34375 C 101.933594 385.375 99.328125 383.339844 96.769531 381.242188 C 94.214844 379.144531 91.710938 376.984375 89.257812 374.761719 C 86.808594 372.539062 84.410156 370.261719 82.074219 367.921875 C 79.734375 365.582031 77.453125 363.1875 75.230469 360.734375 C 73.011719 358.285156 70.851562 355.78125 68.753906 353.222656 C 66.652344 350.667969 64.617188 348.058594 62.648438 345.402344 C 60.679688 342.746094 58.773438 340.042969 56.9375 337.292969 C 55.097656 334.539062 53.328125 331.746094 51.628906 328.910156 C 49.929688 326.074219 48.296875 323.195312 46.738281 320.277344 C 45.179688 317.359375 43.691406 314.40625 42.277344 311.417969 C 40.863281 308.425781 39.523438 305.402344 38.257812 302.347656 C 36.992188 299.289062 35.800781 296.207031 34.6875 293.089844 C 33.574219 289.976562 32.535156 286.835938 31.574219 283.671875 C 30.613281 280.503906 29.734375 277.316406 28.929688 274.109375 C 28.125 270.902344 27.402344 267.675781 26.753906 264.429688 C 26.109375 261.183594 25.546875 257.925781 25.058594 254.65625 C 24.574219 251.382812 24.167969 248.101562 23.84375 244.808594 C 23.519531 241.515625 23.277344 238.21875 23.117188 234.914062 C 22.953125 231.609375 22.871094 228.304688 22.871094 224.996094 C 22.871094 221.6875 22.953125 218.382812 23.117188 215.078125 C 23.277344 211.773438 23.519531 208.476562 23.84375 205.183594 C 24.167969 201.894531 24.574219 198.609375 25.058594 195.339844 C 25.546875 192.066406 26.109375 188.808594 26.753906 185.5625 C 27.402344 182.320312 28.125 179.09375 28.929688 175.882812 C 29.734375 172.675781 30.613281 169.488281 31.574219 166.324219 C 32.535156 163.15625 33.574219 160.015625 34.6875 156.902344 C 35.800781 153.789062 36.992188 150.703125 38.257812 147.648438 C 39.523438 144.589844 40.863281 141.566406 42.277344 138.578125 C 43.691406 135.585938 45.179688 132.632812 46.738281 129.714844 C 48.296875 126.796875 49.929688 123.921875 51.628906 121.082031 C 53.328125 118.246094 55.097656 115.453125 56.9375 112.703125 C 58.773438 109.953125 60.679688 107.25 62.648438 104.589844 C 64.617188 101.933594 66.652344 99.328125 68.753906 96.769531 C 70.851562 94.214844 73.011719 91.710938 75.230469 89.257812 C 77.453125 86.808594 79.734375 84.410156 82.074219 82.074219 C 84.410156 79.734375 86.808594 77.453125 89.257812 75.230469 C 91.710938 73.011719 94.214844 70.851562 96.769531 68.753906 C 99.328125 66.652344 101.933594 64.617188 104.589844 62.648438 C 107.25 60.679688 109.953125 58.773438 112.703125 56.9375 C 115.453125 55.097656 118.246094 53.328125 121.082031 51.628906 C 123.921875 49.929688 126.796875 48.296875 129.714844 46.738281 C 132.632812 45.179688 135.585938 43.691406 138.578125 42.277344 C 141.566406 40.863281 144.589844 39.523438 147.648438 38.257812 C 150.703125 36.992188 153.789062 35.800781 156.902344 34.6875 C 160.015625 33.574219 163.15625 32.535156 166.324219 31.574219 C 169.488281 30.613281 172.675781 29.734375 175.882812 28.929688 C 179.09375 28.125 182.320312 27.402344 185.5625 26.753906 C 188.808594 26.109375 192.066406 25.546875 195.339844 25.058594 C 198.609375 24.574219 201.894531 24.167969 205.183594 23.84375 C 208.476562 23.519531 211.773438 23.277344 215.078125 23.117188 C 218.382812 22.953125 221.6875 22.871094 224.996094 22.871094 C 228.304688 22.871094 231.609375 22.953125 234.914062 23.117188 C 238.21875 23.277344 241.515625 23.519531 244.808594 23.84375 C 248.101562 24.167969 251.382812 24.574219 254.65625 25.058594 C 257.925781 25.546875 261.183594 26.109375 264.429688 26.753906 C 267.675781 27.402344 270.902344 28.125 274.109375 28.929688 C 277.316406 29.734375 280.503906 30.613281 283.671875 31.574219 C 286.835938 32.535156 289.976562 33.574219 293.089844 34.6875 C 296.207031 35.800781 299.289062 36.992188 302.347656 38.257812 C 305.402344 39.523438 308.425781 40.863281 311.417969 42.277344 C 314.40625 43.691406 317.359375 45.179688 320.277344 46.738281 C 323.195312 48.296875 326.074219 49.929688 328.910156 51.628906 C 331.746094 53.328125 334.539062 55.097656 337.292969 56.9375 C 340.042969 58.773438 342.746094 60.679688 345.402344 62.648438 C 348.058594 64.617188 350.667969 66.652344 353.222656 68.753906 C 355.78125 70.851562 358.285156 73.011719 360.734375 75.230469 C 363.1875 77.453125 365.582031 79.734375 367.921875 82.074219 C 370.261719 84.410156 372.539062 86.808594 374.761719 89.257812 C 376.984375 91.710938 379.144531 94.214844 381.242188 96.769531 C 383.339844 99.328125 385.375 101.933594 387.34375 104.589844 C 389.316406 107.25 391.21875 109.953125 393.058594 112.703125 C 394.894531 115.453125 396.664062 118.246094 398.367188 121.082031 C 400.066406 123.921875 401.695312 126.796875 403.253906 129.714844 C 404.816406 132.632812 406.300781 135.585938 407.714844 138.578125 C 409.128906 141.566406 410.46875 144.589844 411.734375 147.648438 C 413 150.703125 414.191406 153.789062 415.304688 156.902344 C 416.421875 160.015625 417.457031 163.15625 418.417969 166.324219 C 419.378906 169.488281 420.261719 172.675781 421.0625 175.882812 C 421.867188 179.09375 422.59375 182.320312 423.238281 185.5625 C 423.882812 188.808594 424.449219 192.066406 424.933594 195.339844 C 425.417969 198.609375 425.824219 201.894531 426.148438 205.183594 C 426.472656 208.476562 426.714844 211.773438 426.878906 215.078125 C 427.039062 218.382812 427.121094 221.6875 427.121094 224.996094 Z M 427.121094 224.996094 " fill-opacity="1" fill-rule="nonzero"/></g><path fill="#ffffff" d="M 206.199219 303.015625 L 166.179688 303.015625 C 164.964844 303.015625 164.15625 302.207031 164.15625 300.996094 L 164.15625 153.847656 C 164.15625 152.636719 164.964844 151.828125 166.179688 151.828125 L 206.199219 151.828125 C 207.410156 151.828125 208.21875 152.636719 208.21875 153.847656 L 208.21875 300.996094 C 208.21875 302.007812 207.210938 303.015625 206.199219 303.015625 Z M 206.199219 303.015625 " fill-opacity="1" fill-rule="nonzero"/><path fill="#ffffff" d="M 278.558594 303.015625 L 238.539062 303.015625 C 237.328125 303.015625 236.519531 302.207031 236.519531 300.996094 L 236.519531 153.847656 C 236.519531 152.636719 237.328125 151.828125 238.539062 151.828125 L 278.558594 151.828125 C 279.773438 151.828125 280.582031 152.636719 280.582031 153.847656 L 280.582031 300.996094 C 280.582031 302.007812 279.570312 303.015625 278.558594 303.015625 Z M 278.558594 303.015625 " fill-opacity="1" fill-rule="nonzero"/><g clip-path="url(#d3cc243364)"><path fill="#004aad" d="M 427.121094 224.996094 C 427.121094 228.304688 427.039062 231.609375 426.878906 234.914062 C 426.714844 238.21875 426.472656 241.515625 426.148438 244.808594 C 425.824219 248.101562 425.417969 251.382812 424.933594 254.65625 C 424.449219 257.925781 423.882812 261.183594 423.238281 264.429688 C 422.59375 267.675781 421.867188 270.902344 421.0625 274.109375 C 420.261719 277.316406 419.378906 280.503906 418.417969 283.671875 C 417.457031 286.835938 416.421875 289.976562 415.304688 293.089844 C 414.191406 296.207031 413 299.289062 411.734375 302.347656 C 410.46875 305.402344 409.128906 308.425781 407.714844 311.417969 C 406.300781 314.40625 404.816406 317.359375 403.253906 320.277344 C 401.695312 323.195312 400.066406 326.074219 398.367188 328.910156 C 396.664062 331.746094 394.894531 334.539062 393.058594 337.292969 C 391.21875 340.042969 389.316406 342.746094 387.34375 345.402344 C 385.375 348.058594 383.339844 350.667969 381.242188 353.222656 C 379.144531 355.78125 376.984375 358.285156 374.761719 360.734375 C 372.539062 363.1875 370.261719 365.582031 367.921875 367.921875 C 365.582031 370.261719 363.1875 372.539062 360.734375 374.761719 C 358.285156 376.984375 355.78125 379.144531 353.222656 381.242188 C 350.667969 383.339844 348.058594 385.375 345.402344 387.34375 C 342.746094 389.316406 340.042969 391.21875 337.292969 393.058594 C 334.539062 394.894531 331.746094 396.664062 328.910156 398.367188 C 326.074219 400.066406 323.195312 401.695312 320.277344 403.253906 C 317.359375 404.816406 314.40625 406.300781 311.417969 407.714844 C 308.425781 409.128906 305.402344 410.46875 302.347656 411.734375 C 299.289062 413 296.207031 414.191406 293.089844 415.304688 C 289.976562 416.421875 286.835938 417.457031 283.671875 418.417969 C 280.503906 419.378906 277.316406 420.261719 274.109375 421.0625 C 270.902344 421.867188 267.675781 422.59375 264.429688 423.238281 C 261.183594 423.882812 257.925781 424.449219 254.65625 424.933594 C 251.382812 425.417969 248.101562 425.824219 244.808594 426.148438 C 241.515625 426.472656 238.21875 426.714844 234.914062 426.878906 C 231.609375 427.039062 228.304688 427.121094 224.996094 427.121094 C 221.6875 427.121094 218.382812 427.039062 215.078125 426.878906 C 211.773438 426.714844 208.476562 426.472656 205.183594 426.148438 C 201.894531 425.824219 198.609375 425.417969 195.339844 424.933594 C 192.066406 424.449219 188.808594 423.882812 185.5625 423.238281 C 182.320312 422.59375 179.09375 421.867188 175.882812 421.0625 C 172.675781 420.261719 169.488281 419.378906 166.324219 418.417969 C 163.15625 417.457031 160.015625 416.421875 156.902344 415.304688 C 153.789062 414.191406 150.703125 413 147.648438 411.734375 C 144.589844 410.46875 141.566406 409.128906 138.578125 407.714844 C 135.585938 406.300781 132.632812 404.816406 129.714844 403.253906 C 126.796875 401.695312 123.921875 400.066406 121.082031 398.367188 C 118.246094 396.664062 115.453125 394.894531 112.703125 393.058594 C 109.953125 391.21875 107.25 389.316406 104.589844 387.34375 C 101.933594 385.375 99.328125 383.339844 96.769531 381.242188 C 94.214844 379.144531 91.710938 376.984375 89.257812 374.761719 C 86.808594 372.539062 84.410156 370.261719 82.074219 367.921875 C 79.734375 365.582031 77.453125 363.1875 75.230469 360.734375 C 73.011719 358.285156 70.851562 355.78125 68.753906 353.222656 C 66.652344 350.667969 64.617188 348.058594 62.648438 345.402344 C 60.679688 342.746094 58.773438 340.042969 56.9375 337.292969 C 55.097656 334.539062 53.328125 331.746094 51.628906 328.910156 C 49.929688 326.074219 48.296875 323.195312 46.738281 320.277344 C 45.179688 317.359375 43.691406 314.40625 42.277344 311.417969 C 40.863281 308.425781 39.523438 305.402344 38.257812 302.347656 C 36.992188 299.289062 35.800781 296.207031 34.6875 293.089844 C 33.574219 289.976562 32.535156 286.835938 31.574219 283.671875 C 30.613281 280.503906 29.734375 277.316406 28.929688 274.109375 C 28.125 270.902344 27.402344 267.675781 26.753906 264.429688 C 26.109375 261.183594 25.546875 257.925781 25.058594 254.65625 C 24.574219 251.382812 24.167969 248.101562 23.84375 244.808594 C 23.519531 241.515625 23.277344 238.21875 23.117188 234.914062 C 22.953125 231.609375 22.871094 228.304688 22.871094 224.996094 C 22.871094 221.6875 22.953125 218.382812 23.117188 215.078125 C 23.277344 211.773438 23.519531 208.476562 23.84375 205.183594 C 24.167969 201.894531 24.574219 198.609375 25.058594 195.339844 C 25.546875 192.066406 26.109375 188.808594 26.753906 185.5625 C 27.402344 182.320312 28.125 179.09375 28.929688 175.882812 C 29.734375 172.675781 30.613281 169.488281 31.574219 166.324219 C 32.535156 163.15625 33.574219 160.015625 34.6875 156.902344 C 35.800781 153.789062 36.992188 150.703125 38.257812 147.648438 C 39.523438 144.589844 40.863281 141.566406 42.277344 138.578125 C 43.691406 135.585938 45.179688 132.632812 46.738281 129.714844 C 48.296875 126.796875 49.929688 123.921875 51.628906 121.082031 C 53.328125 118.246094 55.097656 115.453125 56.9375 112.703125 C 58.773438 109.953125 60.679688 107.25 62.648438 104.589844 C 64.617188 101.933594 66.652344 99.328125 68.753906 96.769531 C 70.851562 94.214844 73.011719 91.710938 75.230469 89.257812 C 77.453125 86.808594 79.734375 84.410156 82.074219 82.074219 C 84.410156 79.734375 86.808594 77.453125 89.257812 75.230469 C 91.710938 73.011719 94.214844 70.851562 96.769531 68.753906 C 99.328125 66.652344 101.933594 64.617188 104.589844 62.648438 C 107.25 60.679688 109.953125 58.773438 112.703125 56.9375 C 115.453125 55.097656 118.246094 53.328125 121.082031 51.628906 C 123.921875 49.929688 126.796875 48.296875 129.714844 46.738281 C 132.632812 45.179688 135.585938 43.691406 138.578125 42.277344 C 141.566406 40.863281 144.589844 39.523438 147.648438 38.257812 C 150.703125 36.992188 153.789062 35.800781 156.902344 34.6875 C 160.015625 33.574219 163.15625 32.535156 166.324219 31.574219 C 169.488281 30.613281 172.675781 29.734375 175.882812 28.929688 C 179.09375 28.125 182.320312 27.402344 185.5625 26.753906 C 188.808594 26.109375 192.066406 25.546875 195.339844 25.058594 C 198.609375 24.574219 201.894531 24.167969 205.183594 23.84375 C 208.476562 23.519531 211.773438 23.277344 215.078125 23.117188 C 218.382812 22.953125 221.6875 22.871094 224.996094 22.871094 C 228.304688 22.871094 231.609375 22.953125 234.914062 23.117188 C 238.21875 23.277344 241.515625 23.519531 244.808594 23.84375 C 248.101562 24.167969 251.382812 24.574219 254.65625 25.058594 C 257.925781 25.546875 261.183594 26.109375 264.429688 26.753906 C 267.675781 27.402344 270.902344 28.125 274.109375 28.929688 C 277.316406 29.734375 280.503906 30.613281 283.671875 31.574219 C 286.835938 32.535156 289.976562 33.574219 293.089844 34.6875 C 296.207031 35.800781 299.289062 36.992188 302.347656 38.257812 C 305.402344 39.523438 308.425781 40.863281 311.417969 42.277344 C 314.40625 43.691406 317.359375 45.179688 320.277344 46.738281 C 323.195312 48.296875 326.074219 49.929688 328.910156 51.628906 C 331.746094 53.328125 334.539062 55.097656 337.292969 56.9375 C 340.042969 58.773438 342.746094 60.679688 345.402344 62.648438 C 348.058594 64.617188 350.667969 66.652344 353.222656 68.753906 C 355.78125 70.851562 358.285156 73.011719 360.734375 75.230469 C 363.1875 77.453125 365.582031 79.734375 367.921875 82.074219 C 370.261719 84.410156 372.539062 86.808594 374.761719 89.257812 C 376.984375 91.710938 379.144531 94.214844 381.242188 96.769531 C 383.339844 99.328125 385.375 101.933594 387.34375 104.589844 C 389.316406 107.25 391.21875 109.953125 393.058594 112.703125 C 394.894531 115.453125 396.664062 118.246094 398.367188 121.082031 C 400.066406 123.921875 401.695312 126.796875 403.253906 129.714844 C 404.816406 132.632812 406.300781 135.585938 407.714844 138.578125 C 409.128906 141.566406 410.46875 144.589844 411.734375 147.648438 C 413 150.703125 414.191406 153.789062 415.304688 156.902344 C 416.421875 160.015625 417.457031 163.15625 418.417969 166.324219 C 419.378906 169.488281 420.261719 172.675781 421.0625 175.882812 C 421.867188 179.09375 422.59375 182.320312 423.238281 185.5625 C 423.882812 188.808594 424.449219 192.066406 424.933594 195.339844 C 425.417969 198.609375 425.824219 201.894531 426.148438 205.183594 C 426.472656 208.476562 426.714844 211.773438 426.878906 215.078125 C 427.039062 218.382812 427.121094 221.6875 427.121094 224.996094 Z M 427.121094 224.996094 " fill-opacity="1" fill-rule="nonzero"/></g><path fill="#ffffff" d="M 206.199219 303.015625 L 166.179688 303.015625 C 164.964844 303.015625 164.15625 302.207031 164.15625 300.996094 L 164.15625 153.847656 C 164.15625 152.636719 164.964844 151.828125 166.179688 151.828125 L 206.199219 151.828125 C 207.410156 151.828125 208.21875 152.636719 208.21875 153.847656 L 208.21875 300.996094 C 208.21875 302.007812 207.210938 303.015625 206.199219 303.015625 Z M 206.199219 303.015625 " fill-opacity="1" fill-rule="nonzero"/><path fill="#ffffff" d="M 278.558594 303.015625 L 238.539062 303.015625 C 237.328125 303.015625 236.519531 302.207031 236.519531 300.996094 L 236.519531 153.847656 C 236.519531 152.636719 237.328125 151.828125 238.539062 151.828125 L 278.558594 151.828125 C 279.773438 151.828125 280.582031 152.636719 280.582031 153.847656 L 280.582031 300.996094 C 280.582031 302.007812 279.570312 303.015625 278.558594 303.015625 Z M 278.558594 303.015625 " fill-opacity="1" fill-rule="nonzero"/></svg>