<svg xmlns="http://www.w3.org/2000/svg" xmlns:xlink="http://www.w3.org/1999/xlink" width="600" zoomAndPan="magnify" viewBox="0 0 450 449.999984" height="600" preserveAspectRatio="xMidYMid meet" version="1.0"><defs><clipPath id="7334476a2a"><path d="M 22.871094 22.871094 L 427.121094 22.871094 L 427.121094 427.121094 L 22.871094 427.121094 Z M 22.871094 22.871094 " clip-rule="nonzero"/></clipPath><clipPath id="b521f6390b"><path d="M 22.871094 22.871094 L 427.121094 22.871094 L 427.121094 427.121094 L 22.871094 427.121094 Z M 22.871094 22.871094 " clip-rule="nonzero"/></clipPath></defs><g clip-path="url(#7334476a2a)"><path fill="#004aad" d="M 427.121094 224.996094 C 427.121094 113.382812 336.609375 22.871094 224.996094 22.871094 C 113.382812 22.871094 22.871094 113.382812 22.871094 224.996094 C 22.871094 336.609375 113.382812 427.121094 224.996094 427.121094 C 336.609375 427.121094 427.121094 336.609375 427.121094 224.996094 Z M 427.121094 224.996094 " fill-opacity="1" fill-rule="nonzero"/></g><path fill="#ffffff" d="M 324.960938 214.570312 L 182.46875 126.988281 C 178.558594 124.625 173.425781 124.464844 169.433594 126.746094 C 165.363281 129.027344 162.835938 133.34375 162.835938 137.988281 L 162.835938 312.332031 C 162.835938 316.976562 165.363281 321.292969 169.351562 323.574219 C 171.308594 324.632812 173.425781 325.203125 175.625 325.203125 C 177.988281 325.203125 180.269531 324.550781 182.308594 323.332031 L 324.796875 236.484375 C 328.625 234.203125 330.988281 229.964844 330.988281 225.566406 C 331.152344 221.085938 328.789062 216.851562 324.960938 214.570312 Z M 324.960938 214.570312 " fill-opacity="1" fill-rule="nonzero"/><g clip-path="url(#b521f6390b)"><path fill="#004aad" d="M 427.121094 224.996094 C 427.121094 113.382812 336.609375 22.871094 224.996094 22.871094 C 113.382812 22.871094 22.871094 113.382812 22.871094 224.996094 C 22.871094 336.609375 113.382812 427.121094 224.996094 427.121094 C 336.609375 427.121094 427.121094 336.609375 427.121094 224.996094 Z M 427.121094 224.996094 " fill-opacity="1" fill-rule="nonzero"/></g><path fill="#ffffff" d="M 324.960938 214.570312 L 182.46875 126.988281 C 178.558594 124.625 173.425781 124.464844 169.433594 126.746094 C 165.363281 129.027344 162.835938 133.34375 162.835938 137.988281 L 162.835938 312.332031 C 162.835938 316.976562 165.363281 321.292969 169.351562 323.574219 C 171.308594 324.632812 173.425781 325.203125 175.625 325.203125 C 177.988281 325.203125 180.269531 324.550781 182.308594 323.332031 L 324.796875 236.484375 C 328.625 234.203125 330.988281 229.964844 330.988281 225.566406 C 331.152344 221.085938 328.789062 216.851562 324.960938 214.570312 Z M 324.960938 214.570312 " fill-opacity="1" fill-rule="nonzero"/></svg>