<svg xmlns="http://www.w3.org/2000/svg" xmlns:xlink="http://www.w3.org/1999/xlink" width="600" zoomAndPan="magnify" viewBox="0 0 450 449.999984" height="600" preserveAspectRatio="xMidYMid meet" version="1.0"><defs><clipPath id="91659b4461"><path d="M 22.871094 22.871094 L 427.121094 22.871094 L 427.121094 427.121094 L 22.871094 427.121094 Z M 22.871094 22.871094 " clip-rule="nonzero"/></clipPath></defs><rect x="-45" width="540" fill="#ffffff" y="-44.999998" height="539.99998" fill-opacity="1"/><rect x="-45" width="540" fill="#ffffff" y="-44.999998" height="539.99998" fill-opacity="1"/><g clip-path="url(#91659b4461)"><path fill="#004aad" d="M 224.996094 22.871094 C 113.363281 22.871094 22.875 113.371094 22.875 224.996094 C 22.875 336.621094 113.363281 427.121094 224.996094 427.121094 C 336.625 427.121094 427.121094 336.621094 427.121094 224.996094 C 427.121094 113.371094 336.625 22.871094 224.996094 22.871094 Z M 296 279.089844 C 296 288.429688 288.429688 296.003906 279.09375 296.003906 L 170.898438 296.003906 C 161.5625 296.003906 153.992188 288.429688 153.992188 279.089844 L 153.992188 170.902344 C 153.992188 161.5625 161.5625 153.992188 170.898438 153.992188 L 279.09375 153.992188 C 288.429688 153.992188 296 161.5625 296 170.902344 Z M 296 279.089844 " fill-opacity="1" fill-rule="nonzero"/><path fill="#004aad" d="M 224.996094 22.871094 C 113.363281 22.871094 22.875 113.371094 22.875 224.996094 C 22.875 336.621094 113.363281 427.121094 224.996094 427.121094 C 336.625 427.121094 427.121094 336.621094 427.121094 224.996094 C 427.121094 113.371094 336.625 22.871094 224.996094 22.871094 Z M 296 279.089844 C 296 288.429688 288.429688 296.003906 279.09375 296.003906 L 170.898438 296.003906 C 161.5625 296.003906 153.992188 288.429688 153.992188 279.089844 L 153.992188 170.902344 C 153.992188 161.5625 161.5625 153.992188 170.898438 153.992188 L 279.09375 153.992188 C 288.429688 153.992188 296 161.5625 296 170.902344 Z M 296 279.089844 " fill-opacity="1" fill-rule="nonzero"/></g></svg>